<svg width="140" height="60" viewBox="0 0 140 60" fill="none" xmlns="http://www.w3.org/2000/svg">
<mask id="path-1-inside-1_123_32" fill="white">
<path fill-rule="evenodd" clip-rule="evenodd" d="M41.1996 57.8397C52.2206 53.4019 60 42.6094 60 30C60 13.4315 46.5685 0 30 0C13.4315 0 0 13.4315 0 30C0 39.3271 4.25642 47.66 10.9328 53.1623C11.0665 50.7214 11.4996 46.7979 12.232 41.392C13.8107 30.4267 14.6 21.936 14.6 15.92C14.6 14.64 14.5147 12.8907 14.344 10.672C17.5867 10.8427 19.6133 11.6107 20.424 12.976C20.8507 13.744 21.128 14.4907 21.256 15.216C21.384 15.8987 21.448 17.0933 21.448 18.8C21.448 20.5067 20.9147 25.008 19.848 32.304L19.016 38.064C32.1147 27.3547 40.2213 18.288 43.336 10.864C44.3173 12.8267 44.808 15.0453 44.808 17.52C44.808 19.952 43.5493 22.4907 41.032 25.136C38.5147 27.7813 34.8027 30.8533 29.896 34.352C32.2853 41.8187 34.6533 47.5787 37 51.632C38.2209 53.7185 39.6207 55.7878 41.1996 57.8397ZM34.4967 59.6652C34.2143 59.3667 33.9394 59.0569 33.672 58.736C32.4347 57.2 31.176 55.216 29.896 52.784C27.9333 49.1147 25.9067 44.4 23.816 38.64C23.6027 38.8107 22.8133 39.3653 21.448 40.304C20.1253 41.2 19.1227 41.904 18.44 42.416C17.6293 48.6027 17.224 53.4027 17.224 56.816C17.224 56.9291 17.2243 57.041 17.225 57.1519C21.1009 58.9787 25.4312 60 30 60C31.5283 60 33.0299 59.8857 34.4967 59.6652Z"/>
</mask>
<path fill-rule="evenodd" clip-rule="evenodd" d="M41.1996 57.8397C52.2206 53.4019 60 42.6094 60 30C60 13.4315 46.5685 0 30 0C13.4315 0 0 13.4315 0 30C0 39.3271 4.25642 47.66 10.9328 53.1623C11.0665 50.7214 11.4996 46.7979 12.232 41.392C13.8107 30.4267 14.6 21.936 14.6 15.92C14.6 14.64 14.5147 12.8907 14.344 10.672C17.5867 10.8427 19.6133 11.6107 20.424 12.976C20.8507 13.744 21.128 14.4907 21.256 15.216C21.384 15.8987 21.448 17.0933 21.448 18.8C21.448 20.5067 20.9147 25.008 19.848 32.304L19.016 38.064C32.1147 27.3547 40.2213 18.288 43.336 10.864C44.3173 12.8267 44.808 15.0453 44.808 17.52C44.808 19.952 43.5493 22.4907 41.032 25.136C38.5147 27.7813 34.8027 30.8533 29.896 34.352C32.2853 41.8187 34.6533 47.5787 37 51.632C38.2209 53.7185 39.6207 55.7878 41.1996 57.8397ZM34.4967 59.6652C34.2143 59.3667 33.9394 59.0569 33.672 58.736C32.4347 57.2 31.176 55.216 29.896 52.784C27.9333 49.1147 25.9067 44.4 23.816 38.64C23.6027 38.8107 22.8133 39.3653 21.448 40.304C20.1253 41.2 19.1227 41.904 18.44 42.416C17.6293 48.6027 17.224 53.4027 17.224 56.816C17.224 56.9291 17.2243 57.041 17.225 57.1519C21.1009 58.9787 25.4312 60 30 60C31.5283 60 33.0299 59.8857 34.4967 59.6652Z" fill="url(#paint0_linear_123_32)"/>
<path d="M41.1996 57.8397L39.6145 59.0593L40.5395 60.2615L41.9466 59.6949L41.1996 57.8397ZM10.9328 53.1623L9.66082 54.7057L12.7134 57.2215L12.9298 53.2717L10.9328 53.1623ZM12.232 41.392L10.2524 41.107L10.2512 41.1152L10.2501 41.1235L12.232 41.392ZM14.344 10.672L14.4491 8.67476L12.1753 8.55508L12.3499 10.8254L14.344 10.672ZM20.424 12.976L22.1723 12.0047L22.1584 11.9796L22.1437 11.9549L20.424 12.976ZM21.256 15.216L19.2864 15.5636L19.2883 15.5741L19.2903 15.5846L21.256 15.216ZM19.848 32.304L17.869 32.0147L17.8685 32.0181L19.848 32.304ZM19.016 38.064L17.0365 37.7781L16.3015 42.8667L20.2819 39.6124L19.016 38.064ZM43.336 10.864L45.1249 9.96957L43.1769 6.07362L41.4917 10.0903L43.336 10.864ZM41.032 25.136L39.5832 23.7573L41.032 25.136ZM29.896 34.352L28.7349 32.7236L27.5462 33.5711L27.9912 34.9615L29.896 34.352ZM37 51.632L35.2691 52.6341L35.2738 52.642L37 51.632ZM34.4967 59.6652L34.7939 61.643L38.5812 61.0738L35.9498 58.2911L34.4967 59.6652ZM33.672 58.736L32.1145 59.9907L32.1249 60.0036L32.1356 60.0164L33.672 58.736ZM29.896 52.784L31.6659 51.8525L31.6596 51.8407L29.896 52.784ZM23.816 38.64L25.696 37.9576L24.7444 35.336L22.5666 37.0783L23.816 38.64ZM21.448 40.304L22.5697 41.9599L22.5811 41.9521L21.448 40.304ZM18.44 42.416L17.24 40.816L16.5664 41.3212L16.457 42.1562L18.44 42.416ZM17.225 57.1519L15.225 57.164L15.2327 58.4239L16.3723 58.961L17.225 57.1519ZM58 30C58 41.7656 50.7425 51.841 40.4525 55.9844L41.9466 59.6949C53.6988 54.9627 62 43.4532 62 30H58ZM30 2C45.464 2 58 14.536 58 30H62C62 12.3269 47.6731 -2 30 -2V2ZM2 30C2 14.536 14.536 2 30 2V-2C12.3269 -2 -2 12.3269 -2 30H2ZM12.2048 51.6189C5.96962 46.4802 2 38.7045 2 30H-2C-2 39.9496 2.54322 48.8398 9.66082 54.7057L12.2048 51.6189ZM12.9298 53.2717C13.0588 50.9169 13.4821 47.0616 14.2139 41.6605L10.2501 41.1235C9.51704 46.5343 9.07423 50.5259 8.93579 53.0529L12.9298 53.2717ZM14.2116 41.677C15.7946 30.6817 16.6 22.0797 16.6 15.92H12.6C12.6 21.7923 11.8268 30.1716 10.2524 41.107L14.2116 41.677ZM16.6 15.92C16.6 14.5649 16.5103 12.757 16.3381 10.5186L12.3499 10.8254C12.519 13.0243 12.6 14.7151 12.6 15.92H16.6ZM14.2389 12.6692C15.7459 12.7485 16.8381 12.9623 17.5873 13.2462C18.3305 13.5279 18.6018 13.8245 18.7043 13.9971L22.1437 11.9549C21.4355 10.7621 20.2882 9.99213 19.0047 9.50578C17.7273 9.02169 16.1848 8.76611 14.4491 8.67476L14.2389 12.6692ZM18.6757 13.9473C19.0147 14.5575 19.2037 15.0945 19.2864 15.5636L23.2256 14.8684C23.0523 13.8868 22.6866 12.9305 22.1723 12.0047L18.6757 13.9473ZM19.2903 15.5846C19.3802 16.0644 19.448 17.0901 19.448 18.8H23.448C23.448 17.0966 23.3878 15.733 23.2217 14.8474L19.2903 15.5846ZM19.448 18.8C19.448 20.3264 18.9447 24.6571 17.869 32.0147L21.827 32.5933C22.8846 25.3589 23.448 20.6869 23.448 18.8H19.448ZM17.8685 32.0181L17.0365 37.7781L20.9955 38.3499L21.8275 32.5899L17.8685 32.0181ZM20.2819 39.6124C33.4131 28.8764 41.862 19.5471 45.1803 11.6377L41.4917 10.0903C38.5807 17.0289 30.8162 25.8329 17.7501 36.5156L20.2819 39.6124ZM41.5471 11.7584C42.3728 13.4097 42.808 15.3158 42.808 17.52H46.808C46.808 14.7748 46.2619 12.2436 45.1249 9.96957L41.5471 11.7584ZM42.808 17.52C42.808 19.2323 41.9207 21.3009 39.5832 23.7573L42.4808 26.5147C45.178 23.6804 46.808 20.6717 46.808 17.52H42.808ZM39.5832 23.7573C37.1916 26.2705 33.5954 29.2578 28.7349 32.7236L31.0571 35.9804C36.01 32.4488 39.8377 29.2922 42.4808 26.5147L39.5832 23.7573ZM27.9912 34.9615C30.3992 42.4867 32.8186 48.4013 35.2691 52.6341L38.7309 50.6299C36.488 46.756 34.1715 41.1506 31.8008 33.7424L27.9912 34.9615ZM35.2738 52.642C36.5401 54.8063 37.9878 56.9453 39.6145 59.0593L42.7846 56.62C41.2536 54.6303 39.9016 52.6308 38.7262 50.622L35.2738 52.642ZM35.9498 58.2911C35.6967 58.0234 35.4495 57.745 35.2084 57.4556L32.1356 60.0164C32.4293 60.3689 32.732 60.71 33.0435 61.0394L35.9498 58.2911ZM35.2295 57.4813C34.0978 56.0765 32.9072 54.2111 31.6658 51.8525L28.1262 53.7155C29.4448 56.2209 30.7715 58.3235 32.1145 59.9907L35.2295 57.4813ZM31.6596 51.8407C29.7575 48.2846 27.7678 43.6657 25.696 37.9576L21.936 39.3224C24.0455 45.1343 26.1092 49.9447 28.1324 53.7273L31.6596 51.8407ZM22.5666 37.0783C22.5669 37.078 22.5627 37.0814 22.5527 37.089C22.543 37.0965 22.5299 37.1064 22.5128 37.1191C22.4785 37.1448 22.4332 37.178 22.3758 37.2196C22.2607 37.3028 22.1076 37.4117 21.9141 37.5476C21.5276 37.8192 20.9953 38.1881 20.3149 38.6559L22.5811 41.9521C23.9086 41.0394 24.7796 40.4304 25.0654 40.2017L22.5666 37.0783ZM20.3263 38.6482C18.9957 39.5496 17.9615 40.2748 17.24 40.816L19.64 44.016C20.2838 43.5331 21.255 42.8504 22.5697 41.9598L20.3263 38.6482ZM16.457 42.1562C15.6426 48.371 15.224 53.2722 15.224 56.816H19.224C19.224 53.5331 19.6161 48.8344 20.423 42.6758L16.457 42.1562ZM15.224 56.816C15.224 56.933 15.2243 57.049 15.225 57.164L19.225 57.1398C19.2243 57.033 19.224 56.9251 19.224 56.816H15.224ZM30 58C25.7321 58 21.6925 57.0465 18.0777 55.3428L16.3723 58.961C20.5093 60.9109 25.1302 62 30 62V58ZM34.1994 57.6875C32.8307 57.8932 31.4284 58 30 58V62C31.6281 62 33.2291 61.8782 34.7939 61.643L34.1994 57.6875Z" fill="white" mask="url(#path-1-inside-1_123_32)"/>
<path d="M74.528 38.504C74.528 36.4133 74.2613 34.92 73.728 34.024C73.216 33.1067 72.4693 32.648 71.488 32.648C70.528 32.648 69.5573 33.128 68.576 34.088C67.5947 35.0267 66.816 36.2 66.24 37.608C65.6853 38.9947 65.408 40.4453 65.408 41.96C65.408 43.4533 65.696 44.7547 66.272 45.864C66.848 46.952 67.7227 47.496 68.896 47.496C70.56 47.496 71.9147 46.5147 72.96 44.552C74.0053 42.5893 74.528 40.5733 74.528 38.504ZM65.248 37.256C66.0587 34.952 67.1467 33.2773 68.512 32.232C69.8987 31.1653 71.296 30.632 72.704 30.632C74.1333 30.632 75.3173 31.2613 76.256 32.52C77.1947 33.7573 77.664 35.4427 77.664 37.576C77.664 39.9227 77.216 42.0987 76.32 44.104C75.3173 46.3227 73.8667 47.8693 71.968 48.744C70.944 49.2347 69.8133 49.48 68.576 49.48C66.848 49.48 65.3333 48.7653 64.032 47.336C62.7307 45.8853 62.08 43.8267 62.08 41.16C62.08 38.472 62.656 36.1467 63.808 34.184C64.96 32.2213 66.528 30.856 68.512 30.088C68.9387 30.088 69.152 30.3013 69.152 30.728C67.04 32.1147 65.7387 34.2907 65.248 37.256ZM97.126 35.08C97.126 36.0613 96.9127 37.8 96.486 40.296C96.0807 42.7707 95.878 44.5733 95.878 45.704C95.878 46.8347 96.0167 47.656 96.294 48.168C96.5713 48.6587 97.0407 49.0853 97.702 49.448C97.4247 49.4693 97.03 49.48 96.518 49.48C95.0673 49.48 94.0327 49.2133 93.414 48.68C92.8167 48.1253 92.518 47.144 92.518 45.736C92.518 44.9467 92.7313 43.3573 93.158 40.968C93.5847 38.5573 93.798 36.7867 93.798 35.656C93.798 34.248 93.3713 33.544 92.518 33.544C91.1527 33.544 89.734 34.7493 88.262 37.16C86.8113 39.5707 86.086 42.472 86.086 45.864C86.086 47.208 86.15 48.2533 86.278 49C85.7233 49.0427 85.3927 49.064 85.286 49.064C83.4087 49.064 82.47 48.1467 82.47 46.312C82.47 45.8853 82.694 44.2427 83.142 41.384C83.59 38.5253 83.814 36.2533 83.814 34.568C83.814 32.8613 83.6327 31.2933 83.27 29.864C84.5287 30.3547 85.4033 31.0587 85.894 31.976C86.406 32.872 86.662 33.9067 86.662 35.08C86.662 36.232 86.534 37.576 86.278 39.112C86.982 36.7013 88.0807 34.6747 89.574 33.032C91.0887 31.368 92.4967 30.536 93.798 30.536C96.0167 30.536 97.126 32.0507 97.126 35.08ZM108.037 24.552C108.037 25.512 107.824 27.5067 107.397 30.536C106.992 33.5653 106.715 35.912 106.565 37.576C107.184 35.336 108.069 33.608 109.221 32.392C110.395 31.1547 111.664 30.536 113.029 30.536C114.395 30.536 115.568 31.1867 116.549 32.488C117.531 33.7893 118.021 35.4533 118.021 37.48C118.021 40.6587 117.232 43.336 115.653 45.512C114.096 47.688 112.176 48.776 109.893 48.776C109.275 48.776 108.645 48.68 108.005 48.488C109.371 48.1467 110.565 47.3573 111.589 46.12C112.635 44.8613 113.392 43.5067 113.861 42.056C114.331 40.584 114.565 39.2187 114.565 37.96C114.565 36.7013 114.341 35.656 113.893 34.824C113.445 33.9707 112.752 33.544 111.813 33.544C110.875 33.544 109.957 34.0987 109.061 35.208C108.187 36.3173 107.461 37.7787 106.885 39.592C106.331 41.4053 106.053 43.176 106.053 44.904C106.053 46.6107 106.256 48.168 106.661 49.576C105.531 49.2133 104.635 48.4453 103.973 47.272C103.333 46.0987 103.013 44.712 103.013 43.112C103.013 41.4907 103.365 38.3867 104.069 33.8C104.795 29.2133 105.157 25.864 105.157 23.752C105.157 21.64 105.061 19.848 104.869 18.376C106.981 19.144 108.037 21.2027 108.037 24.552ZM134.361 30.472C136.196 30.472 137.113 31.4213 137.113 33.32C137.113 33.6613 136.911 35.1653 136.505 37.832C136.1 40.4773 135.897 42.7493 135.897 44.648C135.897 46.5467 136.1 48.2213 136.505 49.672C135.204 49.16 134.297 48.4347 133.785 47.496C133.295 46.5573 133.049 45.3947 133.049 44.008C133.049 43.4747 133.167 42.2693 133.401 40.392C132.761 42.824 131.769 44.872 130.425 46.536C129.081 48.1787 127.833 49 126.681 49C124.249 49 123.033 47.2293 123.033 43.688C123.033 42.5147 123.204 40.8827 123.545 38.792C123.908 36.68 124.089 35.08 124.089 33.992C124.089 32.904 123.94 31.8053 123.641 30.696C125.007 30.696 126.031 30.9307 126.713 31.4C127.396 31.8693 127.737 32.776 127.737 34.12C127.737 34.8453 127.513 36.3387 127.065 38.6C126.617 40.8613 126.393 42.536 126.393 43.624C126.393 45.2027 126.884 45.992 127.865 45.992C128.676 45.992 129.519 45.3627 130.393 44.104C131.289 42.824 132.036 41.1707 132.633 39.144C133.231 37.1173 133.529 35.112 133.529 33.128C133.529 32.232 133.465 31.368 133.337 30.536C133.807 30.4933 134.148 30.472 134.361 30.472Z" fill="white"/>
<defs>
<linearGradient id="paint0_linear_123_32" x1="30" y1="0" x2="30" y2="60" gradientUnits="userSpaceOnUse">
<stop stop-color="#9CB9D1"/>
<stop offset="0.0001" stop-color="#759CD8"/>
<stop offset="1" stop-color="#9CB9D1" stop-opacity="0.27"/>
</linearGradient>
</defs>
</svg>
